PathFileType	4	(X/Y/Z)	pose_F01_0-87.trc
DataRate	CameraRate	NumFrames	NumMarkers	Units	OrigDataRate	OrigDataStartFrame	OrigNumFrames
30	30	9	21	m	30	0	87
Frame#	Time	CHip			RHip			RKnee			RAnkle			RBigToe			RSmallToe			RHeel			LHip			LKnee			LAnkle			LBigToe			LSmallToe			LHeel			Neck			Nose			RShoulder			RElbow			RWrist			LShoulder			LElbow			LWrist			
		X1	Y1	Z1	X2	Y2	Z2	X3	Y3	Z3	X4	Y4	Z4	X5	Y5	Z5	X6	Y6	Z6	X7	Y7	Z7	X8	Y8	Z8	X9	Y9	Z9	X10	Y10	Z10	X11	Y11	Z11	X12	Y12	Z12	X13	Y13	Z13	X14	Y14	Z14	X15	Y15	Z15	X16	Y16	Z16	X17	Y17	Z17	X18	Y18	Z18	X19	Y19	Z19	X20	Y20	Z20	X21	Y21	Z21	
0	0.0	-0.2485426979615006	1.883455515814566	-0.5240609204095359	-0.2571998784730965	1.8795752147869298	-0.4536583612708796	-0.2752420955322108	1.7218084142251557	-0.4468565402015232													-0.22847006730627667	1.8878604202079023	-0.585204439730027	-0.21904812261361573	1.7323443397262797	-0.5620489737184067	-0.21841593099362744	1.589234120775895	-0.5617158646016525	-0.21282707723595845	1.5552768846777207	-0.641646568844805	-0.2057967685782726	1.566311042486528	-0.6501841443900181	-0.2119390253759933	1.5684161278366011	-0.5303774412232132	-0.24213914967221553	2.050054624546878	-0.523671383510371	-0.25080505660420854	2.120496887326791	-0.5678922796897029	-0.26339581806460155	2.048112527063263	-0.43232225811688674	-0.270933880259975	1.9532972257884635	-0.39897408694358427	-0.2788792372293906	1.8749408597976245	-0.3884972907520266	-0.21532125867170027	2.054137521184125	-0.6155325224201487	-1.4413016622877128	1.8710623660969867	0.6746743304671556	-0.20611434902166495	1.887312570107027	-0.6417054158341166
1	0.03333333333333333	-0.24759873846728295	1.8803628431159929	-0.5204502865807179	-0.2588290897949528	1.8758749683557885	-0.45098206449115263	-0.2752420955322108	1.7218084142251557	-0.4468565402015232													-0.22838901006750661	1.8836595419516664	-0.5846811484034625	-0.22011899997288195	1.7307857765169177	-0.5649523855533675	-0.21622939061526422	1.5884045630642303	-0.5638554238016122	-0.2145797006274279	1.556382488310381	-0.6397975927357615	-0.20528373659005042	1.5666773903091202	-0.6506575069951027	-0.21233650695448836	1.5696584037846537	-0.5315185074422754	-0.24217315955333338	2.050045460810881	-0.52371132199057	-0.25080823039690014	2.1204595057917794	-0.5678810893101611	-0.2634729119876054	2.048077815090585	-0.43225579232904554	-0.26975064688193007	1.9541767653610957	-0.39572726943838177	-0.2785206731925643	1.8721390193869447	-0.3877772367555225	-0.21611507081496004	2.0531090835161323	-0.6179769645552383	-1.4413016622877128	1.8710623660969867	0.6746743304671556	-0.20611434902166495	1.887312570107027	-0.6417054158341166
2	0.06666666666666667	-0.2466547789730653	1.8772701704174197	-0.5168396527518999	-0.26045830111680907	1.8721747219246472	-0.44830576771142566	-0.2752420955322108	1.7218084142251557	-0.4468565402015232													-0.22830795282873656	1.8794586636954305	-0.584157857076898	-0.22118987733214818	1.7292272133075557	-0.5678557973883283	-0.214042850236901	1.5875750053525655	-0.565994983001572	-0.21633232401889735	1.5574880919430412	-0.6379486166267181	-0.20477070460182825	1.5670437381317124	-0.6511308696001873	-0.21273398853298342	1.5709006797327063	-0.5326595736613375	-0.24220716943445122	2.0500362970748838	-0.523751260470769	-0.25081140418959175	2.120422124256768	-0.5678698989306193	-0.2635500059106093	2.048043103117907	-0.43218932654120434	-0.26856741350388513	1.955056304933728	-0.39248045193317926	-0.27816210915573797	1.869337178976265	-0.3870571827590184	-0.2169088829582198	2.0520806458481395	-0.620421406690328	-1.4413016622877128	1.8710623660969867	0.6746743304671556	-0.20611434902166495	1.887312570107027	-0.6417054158341166
3	0.1	-0.24676395834849996	1.8790484077990615	-0.5170138040787543	-0.2605858092341292	1.8741617622381348	-0.44854009314351073	-0.2752420955322108	1.7218084142251557	-0.4468565402015232													-0.22823274556644713	1.8823632313426728	-0.5844263282222291	-0.21974474167927574	1.7311797892988938	-0.5653268240902376	-0.21400550704206459	1.5874579902435406	-0.5661065441302793	-0.21465191655045293	1.5570013870632817	-0.6395954521754116	-0.20506870335214644	1.5658663051324997	-0.6506475555135368	-0.2131314701114785	1.5721429556807591	-0.5338006398803998	-0.242206139599953	2.051253669616855	-0.5241821762183032	-0.25080834225638554	2.12037585796132	-0.567911986959851	-0.26350273823858655	2.0480826085988664	-0.4322338623881057	-0.26573789069736836	1.9562377911234545	-0.39173600095439626	-0.27839035896026737	1.8707806032306862	-0.38762356318134555	-0.21606965832447425	2.0532692483082533	-0.6179379324481659	-1.4413016622877128	1.8710623660969867	0.6746743304671556	-0.20611434902166495	1.887312570107027	-0.6417054158341166
4	0.13333333333333333	-0.24784374758377115	1.8796946053583732	-0.520142314970674	-0.26092368074436334	1.874552537411422	-0.44853712234703313	-0.2752420955322108	1.7218084142251557	-0.4468565402015232													-0.22861090915539029	1.882699622114818	-0.5845284259542922	-0.22024620695497046	1.7317778098512584	-0.5648852368413858	-0.2140259321495947	1.587593455480566	-0.5659582106865583	-0.21647900080229462	1.558086874612094	-0.6380054891086264	-0.20491933190876258	1.56758532682899	-0.6511834838139688	-0.21352895168997357	1.5733852316288117	-0.534941706099462	-0.2422563897442619	2.0512904991239904	-0.5240894116898916	-0.2508045107119812	2.1203246584002433	-0.5678264205585105	-0.2635114239123305	2.04808520231553	-0.43218475709186843	-0.2687094367097765	1.9538272022566379	-0.3924871372302092	-0.2803227461447844	1.8715628293729052	-0.385666754540463	-0.21811958053988997	2.052075959464186	-0.6152301196635056	-1.4413016622877128	1.8710623660969867	0.6746743304671556	-0.20611434902166495	1.887312570107027	-0.6417054158341166
5	0.16666666666666666	-0.24709105798823205	1.8797831728399794	-0.5170520451788873	-0.2609941001881263	1.8762177795401513	-0.4487508536609699	-0.2752420955322108	1.7218084142251557	-0.4468565402015232													-0.22865970657496332	1.8841240542797413	-0.5847015582312196	-0.21997513196189497	1.7333840970242604	-0.5652436878353289	-0.21377501076914404	1.588867911536484	-0.56658601940298	-0.21620128705747452	1.5565241445630438	-0.6382849279084668	-0.2050513296205643	1.565644667098516	-0.6506432044459338	-0.21392643326846864	1.5746275075768643	-0.5360827723185242	-0.24221470435467166	2.051253125527745	-0.5241455066354763	-0.2498989962932796	2.120130863754816	-0.5648812159694376	-0.2635114868612863	2.048084478196506	-0.4321903708969259	-0.26866344650893026	1.9561541015833206	-0.3929937883775328	-0.28014655904593555	1.8736210354884344	-0.38574084450566504	-0.2160996759502064	2.0533054417007732	-0.617854796100934	-1.4413016622877128	1.8710623660969867	0.6746743304671556	-0.20611434902166495	1.887312570107027	-0.6417054158341166
6	0.2	-0.24465096348187754	1.883872742488897	-0.511000612970817	-0.26062671407681814	1.8788065025780971	-0.4489568621351425	-0.2752420955322108	1.7218084142251557	-0.4468565402015232													-0.2283321123089098	1.887237028954249	-0.5847736174494375	-0.21982087659057728	1.73161853348477	-0.5653380812450067	-0.21368617513809157	1.5885870124312427	-0.5665074232518661	-0.21628435398070142	1.557246760654157	-0.6379652231277707	-0.2050071054245549	1.5684374800809968	-0.6508943967377544	-0.21432391484696373	1.5758697835249171	-0.5372238385375865	-0.24223829432752322	2.0512751680275225	-0.5241206729007377	-0.24991721370641518	2.1202567212647407	-0.5648416336187322	-0.26350996407489097	2.048084277476403	-0.43224048919332086	-0.26691396567704	1.957768143043068	-0.39538356355193033	-0.2785566560245949	1.8753770619416175	-0.3877961701444771	-0.2161649639924775	2.0532235615985646	-0.6177907033339792	-1.4413016622877128	1.8710623660969867	0.6746743304671556	-0.20611434902166495	1.887312570107027	-0.6417054158341166
7	0.23333333333333334	-0.24592811680792348	1.8808770767900622	-0.5140191771692633	-0.26099347291820857	1.8762919910400864	-0.4487423731307314	-0.2752420955322108	1.7218084142251557	-0.4468565402015232													-0.22848322345409247	1.882670017543481	-0.5844846231857729	-0.22028352528749806	1.7322981063959337	-0.5649339006681203	-0.21602880336807986	1.5874247583846548	-0.5638591656618247	-0.21444899897361952	1.5561997733839077	-0.6394667666988697	-0.20520991827340748	1.5667835443990086	-0.6502351456873738	-0.2147213964254588	1.5771120594729697	-0.5383649047566487	-0.24226054594386756	2.0512883411456366	-0.524109658155045	-0.24991469325194748	2.1202350953362683	-0.5648531838365427	-0.26540341323447475	2.0480710534829285	-0.43017655703893887	-0.26871392382427056	1.9576453811252426	-0.39334476555174486	-0.2790602220069802	1.8804209111834016	-0.38919778007400385	-0.21598199320432648	2.053297263765913	-0.6172088092706692	-1.4413016622877128	1.8710623660969867	0.6746743304671556	-0.20611434902166495	1.887312570107027	-0.6417054158341166
8	0.26666666666666666	-0.24589266068678323	1.8809989548873656	-0.5140750637417976	-0.25886191032790323	1.8777356755779346	-0.45110395422510424	-0.2752420955322108	1.7218084142251557	-0.4468565402015232													-0.2285347997962641	1.8831101579991865	-0.5844318292937372	-0.22022746557104095	1.7321221392816721	-0.5650241768061515	-0.2140223611309247	1.5878052309741115	-0.5659964868952053	-0.21407018918475343	1.5571299117486426	-0.6399619449358859	-0.20396358103196727	1.5679678843224498	-0.6477569272847012	-0.21459113729410073	1.5767032551681792	-0.5383291675152974	-0.24219164872381657	2.051265399219239	-0.5241327806462588	-0.24992415216699057	2.1202560903359724	-0.564815675948335	-0.26347214246554274	2.048114116529757	-0.4323122391328927	-0.26876324390384276	1.9577699488790208	-0.3933329764775212	-0.27955603053551553	1.8771297086897734	-0.3832115934143925	-0.21605917797452062	2.0533906064756575	-0.6177306933257485	-1.4413016622877128	1.8710623660969867	0.6746743304671556	-0.20611434902166495	1.887312570107027	-0.6417054158341166
